<svg xmlns="http://www.w3.org/2000/svg" version="1.1" xmlns:xlink="http://www.w3.org/1999/xlink" width="52" height="52" x="0" y="0" viewBox="0 0 496.158 496.158" style="enable-background:new 0 0 512 512" xml:space="preserve" class=""><g><path d="M248.082.003C111.07.003 0 111.063 0 248.085c0 137.001 111.07 248.07 248.082 248.07 137.006 0 248.076-111.069 248.076-248.07C496.158 111.062 385.088.003 248.082.003z" style="" fill="#3d7f8f" data-original="#337180" class="" opacity="1"></path><path d="M394.818 382.733c-7.312-27.279-69.907-49.333-147.073-49.333s-139.095 22.054-146.407 49.333c-3.259 12.158-6.961 35.192-10.126 57.525 42.747 34.934 97.358 55.897 156.87 55.897 59.509 0 114.117-20.963 156.863-55.896-3.165-22.333-6.867-45.368-10.127-57.526z" style="" fill="#4abc96" data-original="#4abc96" class=""></path><path d="M394.818 382.733c-7.312-27.279-69.907-49.333-147.073-49.333s-139.095 22.054-146.407 49.333c-3.259 12.158-6.961 35.192-10.126 57.525 42.747 34.934 97.358 55.897 156.87 55.897 59.509 0 114.117-20.963 156.863-55.896-3.165-22.333-6.867-45.368-10.127-57.526z" style="" fill="#f9efe8" data-original="#f9efe8" class=""></path><path d="M327.366 342.081c-22.923-5.476-50.211-8.682-79.621-8.682-28.925 0-55.709 3.099-78.278 8.41-4.671 21.706-21.589 100.602-27.219 130.68 32.101 15.169 67.973 23.666 105.834 23.666 37.555 0 73.153-8.356 105.055-23.296l-25.771-130.778z" style="" fill="#33333b" data-original="#33333b"></path><path d="M286.969 282.118h-77.78c12.136 36.588.978 53.294.978 53.294l26.912 6.063h22l26.912-6.062c0-.001-11.158-16.707.978-53.295z" style="" fill="#e2a379" data-original="#e2a379"></path><path d="m297.913 175.056-107.561-5.687c-90.703 91.107-35.219 149.898-17.412 178.571 35.836 57.702-3.645 77.745-3.645 77.745l1.936-.973s69.834-13.476 43.682-76.164c-12.996-31.15-21.099-98.052 83-173.492z" style="" fill="#602f0f" data-original="#602f0f" class=""></path><path d="M248.08 61.579c-44.047 0-79.754 21.167-79.754 113.596 0 31.266 5.595 55.765 13.973 74.673 18.432 41.598 50.335 56.136 65.781 56.136s47.349-14.538 65.78-56.136c8.377-18.908 13.972-43.407 13.972-74.673 0-92.429-35.707-113.596-79.752-113.596z" style="" fill="#f4b382" data-original="#f4b382" class=""></path><path d="M258.511 257.746c-2.971-.439-10.432 2.5-10.432 2.5s-7.566-2.931-10.561-2.48c-4.798.722-11.939 8.953-11.939 10.313 0 0 10.074 5.25 22.5 5.25s22.5-5.25 22.5-5.25-7.197-9.613-12.068-10.333z" style="" fill="#e24444" data-original="#e24444" class=""></path><path d="M254.206 264.411c-1.951-.105-4.461 1.668-6.127 1.668-1.925 0-4.809-1.753-7.025-1.617-13.15.81-15.475 3.617-15.475 3.617s10.074 9.125 22.5 9.125 22.5-9.125 22.5-9.125-2.717-2.935-16.373-3.668z" style="" fill="#d33d3d" data-original="#d33d3d" class=""></path><path d="M247.788 352.746c-29.209 0-37.543-17.333-37.543-17.333l37.91 151.167 37.756-151.167c0-.001-8.915 17.333-38.123 17.333z" style="" fill="#e2a379" data-original="#e2a379"></path><path d="m224.958 394.079 23.197 92.5 23.103-92.5z" style="" fill="#f9efe8" data-original="#f9efe8" class=""></path><path d="m247.829 316.996-37.662 18.417s16.828 28.073 37.62 28.073 38.204-28.073 38.204-28.073l-38.162-18.417z" style="" fill="#e2a379" data-original="#e2a379"></path><path d="M248.08 61.579c-.001 0-.001 0 0 0h-.002c-48.74 0-88.252 21.168-88.252 113.596 0 0 88.171-22.596 88.171-56.244 0 33.647 88.335 56.244 88.335 56.244 0-92.428-39.512-113.596-88.252-113.596z" style="" fill="#602f0f" data-original="#602f0f" class=""></path><path d="M169.766 177.962c-7.624 1.304-13.423 4.587-9.122 29.746 4.303 25.159 9.645 26.329 17.268 25.025l-8.146-54.771zM326.491 177.962l-8.146 54.771c7.625 1.304 12.967.134 17.268-25.025s-1.499-28.442-9.122-29.746z" style="" fill="#f4b382" data-original="#f4b382" class=""></path><path d="M174.746 181.412c-1.042-6.583.067-11.833.067-11.833l-14.987 5.596s9.253 1.237 12.587 11.904c0 0 3.662 2.728 2.333-5.667zM321.383 169.579s1.109 5.25.067 11.833c-1.328 8.394 2.334 5.667 2.334 5.667 3.333-10.667 12.586-11.904 12.586-11.904l-14.987-5.596zM214.913 348.548c-4.366-10.464-8.172-24.968-7.365-42.469h-59.516c7.59 17.789 18.605 31.714 24.908 41.861 35.836 57.702-3.645 77.745-3.645 77.745l1.936-.973s69.834-13.476 43.682-76.164z" style="" fill="#602f0f" data-original="#602f0f" class=""></path></g></svg>