<svg xmlns="http://www.w3.org/2000/svg" version="1.1" xmlns:xlink="http://www.w3.org/1999/xlink" width="52" height="52" x="0" y="0" viewBox="0 0 512 512" style="enable-background:new 0 0 512 512" xml:space="preserve" class=""><g><linearGradient id="b" x1="80.061" x2="487.641" y1="375.344" y2="140.027" gradientUnits="userSpaceOnUse"><stop offset="0" stop-color="#ffd8d8" stop-opacity="0"></stop><stop offset=".998" stop-color="#ffb2b2"></stop></linearGradient><linearGradient id="a"><stop offset="0" stop-color="#ff4d4d" stop-opacity=".4"></stop><stop offset=".146" stop-color="#ff4d4d" stop-opacity=".342"></stop><stop offset="1" stop-color="#ff4d4d" stop-opacity="0"></stop></linearGradient><linearGradient xlink:href="#a" id="c" x1="255.999" x2="255.999" y1="333.343" y2="110.275" gradientUnits="userSpaceOnUse"></linearGradient><linearGradient xlink:href="#a" id="d" x1="256" x2="256" y1="163.838" y2="40.943" gradientUnits="userSpaceOnUse"></linearGradient><linearGradient xlink:href="#a" id="e" x1="366.676" x2="366.676" y1="406.426" y2="181.765" gradientUnits="userSpaceOnUse"></linearGradient><linearGradient xlink:href="#a" id="f" x1="146.069" x2="146.069" y1="429.741" y2="204.701" gradientUnits="userSpaceOnUse"></linearGradient><path fill="url(#b)" d="M486.5 235.519c-12.85-32.579-53.029-51.228-60.747-84.969-11.89-51.979 51.296-94.395-22.889-124.817-158.337-64.931-196.98-3.126-293.523 141.912C85.084 204.089-1.692 223.75 24.26 278.483c7.788 16.423 27.64 22.545 43.45 31.516 84.515 47.956 95.226 188.949 202.474 201.32 68.371 7.886 117.443-54.276 151.485-106.228 32.427-49.487 89.544-106.914 64.831-169.572z" opacity="1" data-original="url(#b)"></path><path fill="#6c6cff" d="M450.611 133.3v152.01c0 8.23-6.67 14.9-14.9 14.9H76.281c-8.22 0-14.89-6.67-14.89-14.9V133.3c0-8.23 6.67-14.9 14.89-14.9h359.43c8.23 0 14.9 6.67 14.9 14.9z" opacity="1" data-original="#6c6cff"></path><path fill="#4d4dff" d="M310.221 127.09c0 30.37-24.28 55-54.22 55-29.95 0-54.23-24.63-54.23-55 0-2.96.23-5.86.67-8.69h107.11c.44 2.83.67 5.73.67 8.69z" opacity="1" data-original="#4d4dff"></path><path fill="#b2b2ff" d="M470.324 159.59v152.02c0 8.22-6.66 14.89-14.89 14.89H56.564c-8.22 0-14.89-6.67-14.89-14.89V159.59c0-8.22 6.67-14.89 14.89-14.89h398.87c8.23 0 14.89 6.67 14.89 14.89z" opacity="1" data-original="#b2b2ff"></path><path fill="#9393ff" d="M307.385 144.7c-7.24 21.74-27.51 37.39-51.38 37.39-23.88 0-44.15-15.65-51.39-37.39z" opacity="1" data-original="#9393ff"></path><path fill="#6c6cff" d="M307.126 308.42H164.489a3 3 0 0 1-3-3v-24a3 3 0 0 1 3-3h142.637a3 3 0 0 1 3 3v24a3 3 0 0 1-3 3z" opacity="1" data-original="#6c6cff"></path><g fill="#6c6cff"><path d="M136.787 269.873H68.54a3 3 0 0 1-3-3v-24a3 3 0 0 1 3-3h68.246a3 3 0 0 1 3 3v24a2.998 2.998 0 0 1-2.999 3zM116.787 231.326H68.54a3 3 0 0 1-3-3v-24a3 3 0 0 1 3-3h48.246a3 3 0 0 1 3 3v24a2.998 2.998 0 0 1-2.999 3z" fill="#6c6cff" opacity="1" data-original="#6c6cff"></path></g><path fill="#6c6cff" d="M403.213 231.326h40.246a3 3 0 0 0 3-3v-24a3 3 0 0 0-3-3h-40.246a3 3 0 0 0-3 3v24a3 3 0 0 0 3 3z" opacity="1" data-original="#6c6cff"></path><g fill="#6c6cff"><path d="M92.54 192.779h-24a3 3 0 0 1-3-3v-24a3 3 0 0 1 3-3h24a3 3 0 0 1 3 3v24a3 3 0 0 1-3 3zM131.531 192.779h-24a3 3 0 0 1-3-3v-24a3 3 0 0 1 3-3h24a3 3 0 0 1 3 3v24a3 3 0 0 1-3 3zM170.522 192.779h-24a3 3 0 0 1-3-3v-24a3 3 0 0 1 3-3h24a3 3 0 0 1 3 3v24a3 3 0 0 1-3 3zM209.513 192.779h-24a3 3 0 0 1-3-3v-24a3 3 0 0 1 3-3h24a3 3 0 0 1 3 3v24a3 3 0 0 1-3 3zM248.504 192.779h-24a3 3 0 0 1-3-3v-24a3 3 0 0 1 3-3h24a3 3 0 0 1 3 3v24a3 3 0 0 1-3 3z" fill="#6c6cff" opacity="1" data-original="#6c6cff"></path></g><path fill="#4d4dff" d="M251.5 165.78v16.12c-11.35-.94-21.71-5.43-30-12.38v-3.74c0-1.66 1.35-3 3-3h24c1.66 0 3 1.34 3 3z" opacity="1" data-original="#4d4dff"></path><path fill="#6c6cff" d="M287.496 192.779h-24a3 3 0 0 1-3-3v-24a3 3 0 0 1 3-3h24a3 3 0 0 1 3 3v24a3 3 0 0 1-3 3z" opacity="1" data-original="#6c6cff"></path><path fill="#4d4dff" d="M290.5 165.78v3.74c-8.29 6.95-18.65 11.44-30 12.38v-16.12c0-1.66 1.34-3 3-3h24c1.65 0 3 1.34 3 3z" opacity="1" data-original="#4d4dff"></path><path fill="#6c6cff" d="M326.487 192.779h-24a3 3 0 0 1-3-3v-24a3 3 0 0 1 3-3h24a3 3 0 0 1 3 3v24a3 3 0 0 1-3 3zM365.478 192.779h-24a3 3 0 0 1-3-3v-24a3 3 0 0 1 3-3h24a3 3 0 0 1 3 3v24a3 3 0 0 1-3 3zM404.469 192.779h-24a3 3 0 0 1-3-3v-24a3 3 0 0 1 3-3h24a3 3 0 0 1 3 3v24a3 3 0 0 1-3 3zM443.46 192.779h-24a3 3 0 0 1-3-3v-24a3 3 0 0 1 3-3h24a3 3 0 0 1 3 3v24a3 3 0 0 1-3 3z" opacity="1" data-original="#6c6cff"></path><g fill="#6c6cff"><path d="M155.522 231.326h-24a3 3 0 0 1-3-3v-24a3 3 0 0 1 3-3h24a3 3 0 0 1 3 3v24a3 3 0 0 1-3 3zM194.513 231.326h-24a3 3 0 0 1-3-3v-24a3 3 0 0 1 3-3h24a3 3 0 0 1 3 3v24a3 3 0 0 1-3 3zM233.504 231.326h-24a3 3 0 0 1-3-3v-24a3 3 0 0 1 3-3h24a3 3 0 0 1 3 3v24a3 3 0 0 1-3 3zM272.496 231.326h-24a3 3 0 0 1-3-3v-24a3 3 0 0 1 3-3h24a3 3 0 0 1 3 3v24a3 3 0 0 1-3 3zM311.487 231.326h-24a3 3 0 0 1-3-3v-24a3 3 0 0 1 3-3h24a3 3 0 0 1 3 3v24a3 3 0 0 1-3 3zM350.478 231.326h-24a3 3 0 0 1-3-3v-24a3 3 0 0 1 3-3h24a3 3 0 0 1 3 3v24a3 3 0 0 1-3 3zM389.469 231.326h-24a3 3 0 0 1-3-3v-24a3 3 0 0 1 3-3h24a3 3 0 0 1 3 3v24a3 3 0 0 1-3 3zM175.173 269.873h-24a3 3 0 0 1-3-3v-24a3 3 0 0 1 3-3h24a3 3 0 0 1 3 3v24a3 3 0 0 1-3 3zM214.164 269.873h-24a3 3 0 0 1-3-3v-24a3 3 0 0 1 3-3h24a3 3 0 0 1 3 3v24a3 3 0 0 1-3 3zM253.155 269.873h-24a3 3 0 0 1-3-3v-24a3 3 0 0 1 3-3h24a3 3 0 0 1 3 3v24a3 3 0 0 1-3 3zM292.146 269.873h-24a3 3 0 0 1-3-3v-24a3 3 0 0 1 3-3h24a3 3 0 0 1 3 3v24a3 3 0 0 1-3 3zM331.138 269.873h-24a3 3 0 0 1-3-3v-24a3 3 0 0 1 3-3h24a3 3 0 0 1 3 3v24a3 3 0 0 1-3 3z" fill="#6c6cff" opacity="1" data-original="#6c6cff"></path></g><g fill="#ff6c6c"><path d="M170.278 68.612h-12.416a5 5 0 1 0 0 10h12.416a5 5 0 1 0 0-10zM130.354 68.612h-12.416a5 5 0 1 0 0 10h12.416a5 5 0 1 0 0-10zM90.43 68.612h-7.416v-3.667a5 5 0 1 0-10 0v17.334a5 5 0 1 0 10 0v-3.667h7.416a5 5 0 1 0 0-10zM210.202 68.612h-12.416a5 5 0 1 0 0 10h12.416a5 5 0 1 0 0-10zM354.138 68.612h-12.416a5 5 0 1 0 0 10h12.416a5 5 0 1 0 0-10zM394.062 68.612h-12.416a5 5 0 1 0 0 10h12.416a5 5 0 1 0 0-10zM314.214 68.612h-12.416a5 5 0 1 0 0 10h12.416a5 5 0 1 0 0-10zM433.986 59.945a5 5 0 0 0-5 5v3.667h-7.416a5 5 0 1 0 0 10h7.416v3.667a5 5 0 1 0 10 0V64.945a5 5 0 0 0-5-5z" fill="#ff6c6c" opacity="1" data-original="#ff6c6c"></path></g><path fill="url(#a)" d="M455.434 144.7h-4.822v-11.4c0-8.23-6.67-14.9-14.9-14.9H76.281c-8.22 0-14.89 6.67-14.89 14.9v11.4h-4.828c-8.22 0-14.89 6.67-14.89 14.89v152.02c0 8.22 6.67 14.89 14.89 14.89h398.87c8.23 0 14.89-6.67 14.89-14.89V159.59c0-8.22-6.659-14.89-14.889-14.89z" opacity="1" data-original="url(#a)" class=""></path><ellipse cx="256" cy="103.088" fill="#ffaa66" rx="54.225" ry="55" opacity="1" data-original="#ffaa66"></ellipse><path fill="#ffffff" d="M276.049 87.484a5 5 0 0 1-5-5v-.731h-30.098v.731a5 5 0 1 1-10 0v-5.731a5 5 0 0 1 5-5h40.098a5 5 0 0 1 5 5v5.731a5 5 0 0 1-5 5zM260.797 134.424h-9.594a5 5 0 1 1 0-10h9.594a5 5 0 1 1 0 10z" opacity="1" data-original="#ffffff"></path><path fill="#ffffff" d="M256 134.424a5 5 0 0 1-5-5V76.753a5 5 0 1 1 10 0v52.671a5 5 0 0 1-5 5z" opacity="1" data-original="#ffffff"></path><ellipse cx="256" cy="103.088" fill="url(#d)" rx="54.225" ry="55" opacity="1" data-original="url(#d)"></ellipse><path fill="#ffc498" d="M434.294 240.972c-8.033-.29-14.634 6.229-14.634 14.312v-4.871c0-7.765-5.953-14.379-13.604-14.655-8.033-.29-14.634 6.229-14.634 14.312v-9.125c0-7.909-6.321-14.321-14.119-14.321s-14.119 6.412-14.119 14.321v-41.168c0-7.765-5.953-14.379-13.604-14.655-8.033-.29-14.634 6.229-14.634 14.312v85.349c0 1.936-1.009 3.785-2.719 4.646-2.639 1.329-5.805.023-6.797-2.763l-5.696-14.779c-4.431-11.497-17.088-17.318-28.534-13.123-4.527 1.659-6.865 6.731-5.218 11.318l23.816 66.337a30.036 30.036 0 0 0 7.724 12.025l8.92 8.456c6.914 6.555 10.839 15.724 10.839 25.323v21.801h94.101V365.3l16.518-67.051v-42.622c-.001-7.766-5.954-14.379-13.606-14.655z" opacity="1" data-original="#ffc498"></path><path fill="#ffaa66" d="M373.18 227.24v44.13c0 2.76-2.23 5-5 5-2.76 0-5-2.24-5-5v-30.43c0-3.95 1.58-7.53 4.14-10.12 1.61-1.64 3.62-2.89 5.86-3.58zM401.42 236.37v35c0 2.76-2.24 5-5 5s-5-2.24-5-5v-21.3c0-6.46 4.21-11.91 10-13.7zM429.66 241.58v29.79c0 2.76-2.24 5-5 5s-5-2.24-5-5v-16.09c0-6.46 4.21-11.91 10-13.7zM344.94 185.73v125.56c0 2.77-2.23 5-5 5-2.76 0-5-2.23-5-5V199.43c0-6.46 4.22-11.91 10-13.7z" opacity="1" data-original="#ffaa66"></path><path fill="url(#a)" d="M434.294 240.972c-8.033-.29-14.634 6.229-14.634 14.312v-4.871c0-7.765-5.953-14.379-13.604-14.655-8.033-.29-14.634 6.229-14.634 14.312v-9.125c0-7.909-6.321-14.321-14.119-14.321s-14.119 6.412-14.119 14.321v-41.168c0-7.765-5.953-14.379-13.604-14.655-8.033-.29-14.634 6.229-14.634 14.312v85.349c0 1.936-1.009 3.785-2.719 4.646-2.639 1.329-5.805.023-6.797-2.763l-5.696-14.779c-4.431-11.497-17.088-17.318-28.534-13.123-4.527 1.659-6.865 6.731-5.218 11.318l23.816 66.337a30.036 30.036 0 0 0 7.724 12.025l8.92 8.456c6.914 6.555 10.839 15.724 10.839 25.323v21.801h94.101V365.3l16.518-67.051v-42.622c-.001-7.766-5.954-14.379-13.606-14.655z" opacity="1" data-original="url(#a)" class=""></path><path fill="#ffc498" d="M78.451 263.859c8.033-.29 14.634 6.229 14.634 14.312V273.3c0-7.765 5.953-14.379 13.604-14.655 8.033-.29 14.634 6.229 14.634 14.312v-9.125c0-7.909 6.321-14.321 14.119-14.321s14.119 6.412 14.119 14.321v-41.168c0-7.765 5.953-14.379 13.604-14.655 8.033-.29 14.634 6.229 14.634 14.312v85.349c0 1.936 1.009 3.785 2.719 4.646 2.639 1.329 5.805.023 6.797-2.763l5.696-14.779c4.431-11.497 17.088-17.318 28.534-13.123 4.527 1.659 6.865 6.731 5.218 11.318l-23.816 66.337a30.036 30.036 0 0 1-7.724 12.025l-8.92 8.456c-6.914 6.555-10.839 15.724-10.839 25.323v21.801H81.365v-38.724l-16.518-67.051v-42.622c0-7.765 5.953-14.379 13.604-14.655z" opacity="1" data-original="#ffc498"></path><path fill="#ffaa66" d="M149.56 263.83v30.43c0 2.76-2.24 5-5 5s-5-2.24-5-5v-44.13c2.24.69 4.25 1.93 5.86 3.57 2.56 2.6 4.14 6.18 4.14 10.13zM121.32 272.96v21.3c0 2.76-2.23 5-5 5-2.76 0-5-2.24-5-5v-35.01c5.79 1.79 10 7.25 10 13.71zM93.08 278.17v16.09c0 2.76-2.23 5-5 5-2.76 0-5-2.24-5-5v-29.79c5.79 1.79 10 7.24 10 13.7zM177.8 222.32v111.86c0 2.76-2.24 5-5 5s-5-2.24-5-5V208.62c5.79 1.79 10 7.24 10 13.7z" opacity="1" data-original="#ffaa66"></path><path fill="url(#a)" d="M78.451 263.859c8.033-.29 14.634 6.229 14.634 14.312V273.3c0-7.765 5.953-14.379 13.604-14.655 8.033-.29 14.634 6.229 14.634 14.312v-9.125c0-7.909 6.321-14.321 14.119-14.321s14.119 6.412 14.119 14.321v-41.168c0-7.765 5.953-14.379 13.604-14.655 8.033-.29 14.634 6.229 14.634 14.312v85.349c0 1.936 1.009 3.785 2.719 4.646 2.639 1.329 5.805.023 6.797-2.763l5.696-14.779c4.431-11.497 17.088-17.318 28.534-13.123 4.527 1.659 6.865 6.731 5.218 11.318l-23.816 66.337a30.036 30.036 0 0 1-7.724 12.025l-8.92 8.456c-6.914 6.555-10.839 15.724-10.839 25.323v21.801H81.365v-38.724l-16.518-67.051v-42.622c0-7.765 5.953-14.379 13.604-14.655z" opacity="1" data-original="url(#a)" class=""></path><path fill="#ff6c6c" d="M218.408 401.893h-8.474a5 5 0 1 1 0-10h8.474a5 5 0 1 1 0 10zM236.648 420.902h-26.714a5 5 0 1 1 0-10h26.714a5 5 0 1 1 0 10zM236.648 439.912h-26.714a5 5 0 1 1 0-10h26.714a5 5 0 1 1 0 10z" opacity="1" data-original="#ff6c6c"></path><path fill="#8282ff" d="M347.93 468.912c-8.271 0-15-6.729-15-15s6.729-15 15-15 15 6.729 15 15-6.729 15-15 15zm0-20c-2.757 0-5 2.243-5 5s2.243 5 5 5 5-2.243 5-5-2.243-5-5-5z" opacity="1" data-original="#8282ff"></path><path fill="#ff6c6c" d="M160.278 44.158c-8.271 0-15-6.729-15-15s6.729-15 15-15 15 6.729 15 15-6.728 15-15 15zm0-20c-2.757 0-5 2.243-5 5s2.243 5 5 5 5-2.243 5-5-2.243-5-5-5z" opacity="1" data-original="#ff6c6c"></path><path fill="#ff9c33" d="M101.119 478.912a5 5 0 0 1-3.535-8.535l10-10a5 5 0 0 1 7.07 7.071l-10 10a4.987 4.987 0 0 1-3.535 1.464z" opacity="1" data-original="#ff9c33"></path><path fill="#8282ff" d="M465.323 102.612a5 5 0 0 1-3.535-8.535l10-10a5 5 0 0 1 7.07 7.071l-10 10a4.981 4.981 0 0 1-3.535 1.464z" opacity="1" data-original="#8282ff"></path><path fill="#ff6c6c" d="M299.138 417.62a5 5 0 0 1-3.535-8.535l10-10a5 5 0 0 1 7.07 7.071l-10 10a4.984 4.984 0 0 1-3.535 1.464z" opacity="1" data-original="#ff6c6c"></path></g></svg>